<svg width="643px" height="116px" viewBox="0 0 643 116" version="1.1" xmlns="http://www.w3.org/2000/svg">
    <g stroke-linecap="square">
        <g transform="translate(7.000000, 7.000000)" stroke="#334" stroke-width="15">
            <g>
                <line x1="1" y1="1" x2="101" y2="1"/>
                <line x1="101.25" y1="1" x2="101.25" y2="101"/>
                <line x1="1" y1="45" x2="1" y2="100"/>
                <line x1="1" y1="41" x2="101" y2="41"/>
                <line x1="1" y1="101" x2="101" y2="101"/>
            </g>
            <g transform="translate(132.000000, 0.000000)">
                <line x1="1" y1="1" x2="101" y2="1"/>
                <line x1="1" y1="1" x2="1" y2="101"/>
                <line x1="1" y1="101" x2="101" y2="101"/>
            </g>
            <g transform="translate(263.000000, 0.000000)">
                <line x1="1" y1="1" x2="101" y2="1"/>
                <line x1="1" y1="1" x2="1" y2="101"/>
                <line x1="101.25" y1="1" x2="101.25" y2="101"/>
                <line x1="1" y1="101" x2="101" y2="101"/>
            </g>
            <g transform="translate(396.000000, 0.000000)">
                <line x1="0" y1="1" x2="100" y2="1"/>
                <line x1="100.25" y1="1" x2="100.25" y2="101"/>
                <line x1="0" y1="101" x2="100" y2="101"/>
            </g>
            <g transform="translate(527.000000, 0.000000)">
                <line x1="1" y1="1" x2="101" y2="1"/>
                <line x1="1" y1="1" x2="1" y2="101"/>
                <line x1="101.208333" y1="1.5" x2="101.208333" y2="56"/>
                <line x1="1" y1="56.25" x2="101" y2="56.25"/>
                <line x1="1" y1="101" x2="101" y2="101"/>
            </g>
        </g>
    </g>
</svg>